<!-- icon666.com - MILLIONS vector ICONS FREE --><svg version="1.1" id="Layer_1" xmlns="http://www.w3.org/2000/svg" xmlns:xlink="http://www.w3.org/1999/xlink" x="0px" y="0px" viewBox="0 0 508 508" style="enable-background:new 0 0 508 508;" xml:space="preserve"><circle style="fill: rgb(140, 207, 185);" cx="254" cy="254" r="254" fill="#90DFAA"></circle><rect x="277.31" y="258.52" transform="matrix(-0.7071 0.7071 -0.7071 -0.7071 706.8718 292.2441)" style="" width="31.2" height="67.999" fill="#2B3B4E"></rect><circle style="" cx="203.2" cy="203.2" r="114.4" fill="#FFFFFF"></circle><circle style="" cx="203.2" cy="203.2" r="92.4" fill="#84DBFF"></circle><path style="" d="M416.8,390.8l-26,26c-3.2,3.2-8.4,3.2-11.6,0l-86-85.6c-3.2-3.2-3.2-8.4,0-11.6l26-26 c3.2-3.2,8.4-3.2,11.6,0l85.6,85.6C420,382.4,420,387.6,416.8,390.8z" fill="#324A5E"></path><ellipse transform="matrix(0.7071 -0.7071 0.7071 0.7071 -67.1138 154.6143)" style="" cx="153.079" cy="158.321" rx="16.4" ry="9.6" fill="#FFFFFF"></ellipse></svg>